<svg xmlns="http://www.w3.org/2000/svg" xmlns:xlink="http://www.w3.org/1999/xlink" width="1080" zoomAndPan="magnify" viewBox="0 0 810 809.999993" height="1080" preserveAspectRatio="xMidYMid meet" version="1.0"><path fill="#e8d9c5" d="M 390.273438 272.453125 L 419.726562 272.453125 L 419.726562 287.183594 L 434.453125 287.183594 L 434.453125 301.910156 L 449.183594 301.910156 L 449.183594 316.636719 L 463.910156 316.636719 L 463.910156 331.363281 L 478.636719 331.363281 L 478.636719 346.089844 L 493.363281 346.089844 L 493.363281 360.816406 L 508.089844 360.816406 L 508.089844 375.546875 L 522.816406 375.546875 L 522.816406 390.273438 L 537.546875 390.273438 L 537.546875 419.726562 L 522.816406 419.726562 L 522.816406 434.453125 L 508.089844 434.453125 L 508.089844 449.183594 L 493.363281 449.183594 L 493.363281 463.910156 L 478.636719 463.910156 L 478.636719 478.636719 L 463.910156 478.636719 L 463.910156 493.363281 L 449.183594 493.363281 L 449.183594 508.089844 L 434.453125 508.089844 L 434.453125 522.816406 L 419.726562 522.816406 L 419.726562 537.546875 L 390.273438 537.546875 L 390.273438 463.910156 L 272.453125 463.910156 L 272.453125 346.089844 L 390.273438 346.089844 L 390.273438 272.453125 M 419.726562 331.363281 L 419.726562 375.546875 L 301.910156 375.546875 L 301.910156 434.453125 L 419.726562 434.453125 L 419.726562 478.636719 L 434.453125 478.636719 L 434.453125 463.910156 L 449.183594 463.910156 L 449.183594 449.183594 L 463.910156 449.183594 L 463.910156 434.453125 L 478.636719 434.453125 L 478.636719 419.726562 L 493.363281 419.726562 L 493.363281 390.273438 L 478.636719 390.273438 L 478.636719 375.546875 L 463.910156 375.546875 L 463.910156 360.816406 L 449.183594 360.816406 L 449.183594 346.089844 L 434.453125 346.089844 L 434.453125 331.363281 Z M 419.726562 331.363281 " fill-opacity="1" fill-rule="nonzero"/></svg>