<?xml version="1.0" encoding="UTF-8"?>
<!DOCTYPE svg PUBLIC "-//W3C//DTD SVG 1.1//EN" "http://www.w3.org/Graphics/SVG/1.1/DTD/svg11.dtd">
<!-- Creator: CorelDRAW X7 -->
<svg xmlns="http://www.w3.org/2000/svg" xml:space="preserve" width="35.3465mm" height="4.9657mm"
    version="1.1"
    style="shape-rendering:geometricPrecision; text-rendering:geometricPrecision; image-rendering:optimizeQuality; fill-rule:evenodd; clip-rule:evenodd"
    viewBox="0 0 596 84"
    xmlns:xlink="http://www.w3.org/1999/xlink">
 <defs>
  <style type="text/css">
   <![CDATA[
    .str0 {stroke:#7f0000;stroke-width:5.95267}
    .fil0 {fill:#7f0000}
   ]]>
  </style>
 </defs>
 <g id="Layer_x0020_1">
  <metadata id="CorelCorpID_0Corel-Layer"/>
  <g id="_2141992412480">
   <g>
    <path class="fil0" d="M252 42c0,-4 4,-7 9,-7 5,0 27,2 27,6 0,4 -22,7 -27,7 -5,0 -9,-3 -9,-6z"/>
    <path class="fil0" d="M274 2c4,-2 8,0 11,4 2,4 12,24 9,26 -3,2 -18,-15 -21,-19 -2,-4 -2,-9 1,-11z"/>
    <path class="fil0" d="M322 1c3,1 3,6 1,11 -2,4 -15,22 -18,20 -3,-1 4,-23 6,-27 3,-4 7,-6 11,-4z"/>
    <path class="fil0" d="M321 83c-4,2 -8,0 -10,-4 -3,-5 -11,-26 -8,-27 4,-2 17,16 19,20 3,5 2,9 -1,11z"/>
    <path class="fil0" d="M274 81c-3,-2 -4,-7 -1,-11 3,-4 17,-22 20,-20 3,2 -6,23 -9,27 -2,4 -7,6 -10,4z"/>
    <path class="fil0" d="M342 42c0,-4 -4,-7 -9,-7 -4,0 -27,2 -27,6 0,4 23,7 27,7 5,0 9,-3 9,-6z"/>
    <path class="fil0" d="M267 23c2,-2 5,-2 7,-1 3,2 14,10 12,12 -1,2 -14,-3 -16,-5 -3,-1 -4,-4 -3,-6z"/>
    <path class="fil0" d="M299 6c2,0 4,2 4,5 0,3 -2,17 -4,17 -3,0 -4,-14 -4,-17 0,-3 2,-5 4,-5z"/>
    <path class="fil0" d="M329 25c1,2 0,5 -3,6 -2,1 -15,6 -16,4 -1,-2 10,-10 13,-11 2,-2 5,-1 6,1z"/>
    <path class="fil0" d="M327 61c-1,2 -4,2 -7,0 -2,-1 -13,-10 -11,-12 1,-2 13,4 16,5 2,2 3,5 2,7z"/>
    <path class="fil0" d="M298 76c-2,0 -4,-3 -3,-6 0,-3 2,-16 5,-16 2,0 3,14 3,17 -1,3 -3,5 -5,5z"/>
    <path class="fil0" d="M265 61c-1,-1 0,-4 2,-6 3,-2 15,-8 16,-7 1,2 -9,12 -11,14 -2,1 -5,1 -7,-1z"/>
   </g>
   <circle class="fil0" transform="matrix(1.0887E-014 -0.411072 0.411072 1.0887E-014 297.234 38.9986)" r="14"/>
   <g>
    <ellipse class="fil0 str0" transform="matrix(2.5119E-014 -0.948441 0.948441 2.5119E-014 127.62 41.8935)" rx="2" ry="131"/>
    <circle class="fil0 str0" transform="matrix(2.82292E-014 -1.06588 1.06588 2.82292E-014 179.118 41.8927)" r="16"/>
    <circle class="fil0 str0" transform="matrix(2.11658E-014 -0.799174 0.799174 2.11658E-014 127.621 41.8929)" r="16"/>
    <circle class="fil0 str0" transform="matrix(1.58697E-014 -0.599207 0.599207 1.58697E-014 81.3175 41.893)" r="16"/>
   </g>
   <g>
    <ellipse class="fil0 str0" transform="matrix(2.5119E-014 -0.948441 -0.948441 -2.5119E-014 468.769 41.8935)" rx="2" ry="131"/>
    <circle class="fil0 str0" transform="matrix(2.82292E-014 -1.06588 -1.06588 -2.82292E-014 417.271 41.8927)" r="16"/>
    <circle class="fil0 str0" transform="matrix(2.11658E-014 -0.799174 -0.799174 -2.11658E-014 468.768 41.8929)" r="16"/>
    <circle class="fil0 str0" transform="matrix(1.58697E-014 -0.599207 -0.599207 -1.58697E-014 515.072 41.893)" r="16"/>
   </g>
  </g>
 </g>
</svg>