<?xml version="1.0" standalone="no"?>
<!DOCTYPE svg PUBLIC "-//W3C//DTD SVG 20010904//EN" "http://www.w3.org/TR/2001/REC-SVG-20010904/DTD/svg10.dtd">
<svg version="1.0" xmlns="http://www.w3.org/2000/svg"
  width="300.000000pt" height="300.000000pt" viewBox="0 0 300.000000 300.000000"
  preserveAspectRatio="xMidYMid meet">

  <g transform="translate(0.000000,300.000000) scale(0.100000,-0.100000)"
    fill="#000000" stroke="none">
    <path
      d="M180 2172 c0 -16 99 -127 153 -171 30 -25 97 -71 148 -101 51 -30
105 -68 120 -83 69 -69 508 -104 642 -52 14 6 17 1 17 -30 0 -56 -33 -92 -186
-201 -74 -53 -159 -124 -190 -158 -59 -64 -114 -150 -114 -177 0 -32 82 -85
193 -124 59 -21 109 -68 124 -119 15 -49 -5 -45 -29 6 -25 52 -70 85 -135 98
-71 15 -105 32 -131 65 -26 33 -52 32 -87 -5 l-30 -31 28 -48 c36 -65 34 -74
-8 -26 l-34 40 -33 -32 c-22 -22 -28 -33 -17 -33 8 0 20 5 27 12 15 15 16 3 2
-23 -11 -20 3 -28 15 -9 12 19 26 10 20 -11 -6 -19 -4 -21 20 -17 24 5 26 3
20 -20 -6 -25 -6 -25 19 -9 32 22 36 21 36 -3 0 -17 5 -19 25 -14 21 5 25 3
25 -15 0 -24 15 -28 24 -6 9 25 36 18 36 -10 0 -27 15 -34 24 -10 9 24 26 17
26 -11 0 -14 4 -22 10 -19 13 8 67 -33 73 -56 6 -21 27 -26 27 -6 0 7 -14 35
-31 61 -37 59 -33 73 5 16 29 -44 59 -52 76 -21 14 28 13 30 -16 28 -15 -1
-29 4 -31 11 -3 8 5 12 24 12 15 0 39 9 53 19 20 16 24 27 22 59 -4 51 15 95
90 211 96 148 102 170 103 348 1 161 8 187 48 181 19 -3 21 -11 21 -128 1
-116 3 -129 28 -177 30 -57 73 -108 211 -252 116 -122 156 -202 150 -301 -5
-75 6 -97 53 -106 26 -5 37 0 73 35 24 23 59 45 82 51 21 5 57 15 80 21 23 6
44 8 47 5 3 -3 0 -6 -7 -6 -32 0 -174 -65 -201 -91 -38 -39 -38 -62 0 -76 34
-13 34 -13 18 22 -15 33 -4 43 22 20 20 -18 20 -17 20 12 0 42 10 47 38 21
l25 -23 -5 27 c-5 28 5 38 17 18 10 -17 22 -11 29 12 4 18 8 20 18 10 16 -16
28 -15 28 3 0 17 16 20 25 5 10 -17 25 -11 25 9 0 29 18 36 41 15 19 -17 23
-14 20 19 -2 11 5 17 18 17 18 0 20 4 14 31 -5 25 -2 31 16 36 18 4 21 11 17
29 -4 14 -2 24 4 24 5 0 10 7 10 15 0 8 5 15 11 15 8 0 9 15 4 46 -6 40 -4 45
11 42 23 -4 31 27 9 36 -35 13 -72 -53 -99 -177 -8 -35 -63 -93 -96 -102 -23
-6 -23 -5 5 13 49 32 63 53 80 130 12 51 27 87 51 118 l35 45 -51 69 c-28 38
-65 81 -81 94 -39 33 -121 62 -199 71 -86 9 -278 58 -332 86 -56 28 -85 55
-109 101 -29 58 -25 79 27 122 l46 38 51 -15 c90 -28 121 -29 263 -12 94 11
190 31 294 61 138 40 171 54 308 132 130 74 165 99 228 164 41 43 74 86 74 95
-1 12 -24 -7 -70 -56 -39 -41 -70 -70 -70 -65 0 6 16 26 36 45 36 34 71 89 57
89 -4 0 -61 -53 -128 -118 -133 -132 -236 -202 -267 -183 -22 14 -93 14 -119
1 -25 -14 -25 -34 1 -27 25 6 26 -5 1 -27 -12 -11 -21 -13 -25 -7 -4 5 -16 0
-30 -13 -42 -42 -186 -70 -366 -71 -130 0 -160 3 -187 18 -32 17 -41 31 -25
41 4 2 43 0 87 -5 140 -16 383 18 476 66 61 32 25 32 -73 0 -93 -30 -273 -58
-256 -40 4 4 35 15 70 25 97 28 176 58 200 75 13 8 30 15 38 15 9 0 26 11 38
25 12 14 31 25 42 25 10 0 24 9 29 19 6 10 36 33 67 50 42 25 154 122 154 136
0 1 -22 2 -49 3 -48 1 -53 -2 -168 -94 -123 -99 -215 -152 -348 -204 -130 -49
-119 -34 30 43 152 78 245 139 312 200 50 46 53 57 15 57 -19 0 -69 -30 -163
-96 -142 -102 -206 -138 -363 -203 -103 -43 -136 -50 -136 -28 0 20 -43 57
-66 57 -10 0 -34 -9 -53 -21 l-34 -21 -24 26 c-25 28 -65 42 -83 31 -7 -4 -27
1 -45 11 -32 17 -34 17 -64 -2 -28 -18 -40 -19 -117 -12 -151 15 -341 100
-453 203 -59 55 -86 69 -74 39 5 -15 3 -15 -25 0 -45 23 -92 21 -92 -4 0 -15
7 -20 29 -20 22 0 30 -6 35 -25 4 -15 16 -27 30 -31 14 -3 27 -12 30 -20 3 -8
14 -14 23 -14 10 0 26 -9 36 -20 9 -11 26 -20 37 -20 11 0 20 -3 20 -7 0 -5
21 -16 48 -26 46 -19 81 -33 144 -61 46 -21 162 -40 231 -38 31 0 57 -3 57 -8
0 -17 -140 -11 -230 9 -47 11 -109 28 -139 40 -50 19 -74 21 -58 5 18 -19 152
-56 271 -75 83 -13 132 -25 124 -30 -7 -5 -22 -9 -33 -9 -17 -1 -17 -2 4 -11
39 -16 13 -27 -88 -39 -255 -31 -572 86 -784 289 -37 36 -77 80 -88 98 -18 30
-49 45 -49 25z m2260 -53 c-12 -22 -30 -25 -30 -6 0 17 21 38 32 31 4 -3 3
-14 -2 -25z m-73 -54 c-4 -8 -14 -15 -23 -15 -16 0 -16 2 1 20 20 22 31 20 22
-5z m-77 -55 c0 -5 -8 -10 -17 -10 -15 0 -16 2 -3 10 19 12 20 12 20 0z m-85
-60 c-3 -5 -11 -10 -16 -10 -6 0 -7 5 -4 10 3 6 11 10 16 10 6 0 7 -4 4 -10z
m-844 -74 c12 -26 4 -132 -11 -141 -21 -13 -31 26 -24 94 7 74 17 87 35 47z
m68 -4 c6 -11 5 -25 -3 -41 -11 -20 -14 -21 -19 -6 -18 46 1 87 22 47z m190
-15 c8 -10 7 -27 -4 -65 -24 -81 -85 -98 -70 -19 7 38 40 97 54 97 5 0 14 -6
20 -13z m-332 -19 c-3 -8 -6 -5 -6 6 -1 11 2 17 5 13 3 -3 4 -12 1 -19z m193
-103 c-13 -38 -40 -48 -40 -15 0 12 7 35 16 52 14 27 18 29 26 14 6 -11 5 -29
-2 -51z m-173 -259 c-3 -73 -11 -145 -17 -161 -6 -16 -42 -74 -79 -129 -37
-56 -76 -117 -86 -136 -10 -19 -19 -37 -21 -39 -1 -2 -17 13 -34 32 -23 26
-54 45 -116 68 -100 38 -134 62 -134 93 0 31 87 161 141 212 53 49 169 137
175 132 2 -3 -28 -29 -67 -58 -67 -51 -107 -95 -97 -105 2 -3 46 29 96 70 51
41 92 71 92 66 0 -5 -39 -44 -86 -88 -93 -84 -174 -176 -174 -199 0 -7 73 59
163 146 145 144 162 158 165 135 5 -38 20 -30 32 16 36 132 54 110 47 -55z
m250 -127 c17 -25 80 -97 140 -160 59 -63 131 -141 158 -173 36 -42 51 -54 53
-42 6 29 -40 89 -181 234 -134 136 -169 185 -93 127 50 -38 45 -20 -14 49 -56
65 -59 85 -6 38 19 -17 64 -47 100 -67 36 -20 66 -40 66 -45 0 -20 -13 -40
-26 -40 -8 0 -14 -4 -14 -10 0 -5 7 -10 15 -10 8 0 30 -13 48 -30 19 -16 40
-30 47 -30 7 0 30 14 51 31 47 37 60 34 122 -26 52 -49 63 -93 28 -102 -19 -5
-19 -7 -4 -39 21 -43 12 -52 -23 -25 -34 27 -50 17 -24 -16 11 -14 20 -29 20
-33 0 -5 -32 -20 -70 -35 -47 -18 -78 -37 -92 -56 l-22 -29 -26 74 c-35 100
-61 137 -189 270 -94 98 -108 117 -104 140 4 17 -1 34 -11 45 -21 23 -46 103
-46 145 1 24 8 12 33 -54 18 -47 47 -106 64 -131z m-9 76 c-3 -3 -9 2 -12 12
-6 14 -5 15 5 6 7 -7 10 -15 7 -18z m234 -24 c62 -16 152 -34 199 -39 95 -12
157 -33 207 -69 35 -26 42 -53 14 -53 -10 0 -41 -11 -68 -25 l-49 -25 -25 20
c-14 12 -93 54 -177 95 -135 65 -240 125 -221 125 4 0 58 -13 120 -29z m98
-155 c0 -3 -4 -8 -10 -11 -5 -3 -10 -1 -10 4 0 6 5 11 10 11 6 0 10 -2 10 -4z
m327 -88 c6 -7 13 -26 17 -43 l6 -30 -25 28 c-25 28 -33 57 -16 57 5 0 13 -6
18 -12z m73 -18 c-12 -23 -36 -40 -26 -19 3 8 9 22 12 31 4 10 10 15 15 12 5
-3 5 -13 -1 -24z m-1496 -56 c20 -19 20 -28 1 -44 -12 -10 -16 -9 -21 4 -3 9
-15 16 -25 16 -18 0 -26 20 -12 33 11 12 41 7 57 -9z m1422 -30 c19 -46 2
-144 -25 -144 -11 0 -51 92 -45 102 10 15 22 8 34 -22 13 -31 30 -32 30 -2 0
9 -7 30 -15 46 -8 15 -15 35 -15 42 0 27 21 14 36 -22z m-1326 -49 c0 -13 -18
-30 -25 -23 -2 1 -7 16 -11 32 -6 26 -5 27 15 17 11 -7 21 -18 21 -26z m1216
-18 c-6 -25 -46 -49 -101 -61 -21 -4 -13 2 25 21 30 16 59 38 65 50 12 28 19
21 11 -10z m-1278 -2 c-3 -3 -13 -2 -22 1 -14 5 -15 9 -4 15 13 8 36 -6 26
-16z m150 -8 c2 -15 -1 -27 -7 -27 -6 0 -11 7 -11 15 0 18 -12 19 -28 3 -19
-19 -23 -4 -6 21 21 29 48 23 52 -12z m1171 -85 c1 -15 -4 -22 -11 -20 -15 5
-22 43 -13 66 6 15 8 15 15 -3 5 -11 9 -30 9 -43z m-1114 28 c3 -5 -3 -10 -14
-10 -11 0 -23 5 -26 10 -3 6 3 10 14 10 11 0 23 -4 26 -10z m1052 -54 c-8 -19
-37 -21 -37 -3 0 7 5 18 12 25 15 15 33 -1 25 -22z m-67 -6 c0 -11 -7 -20 -15
-20 -15 0 -21 21 -8 33 12 13 23 7 23 -13z m-65 -25 c0 -10 -5 -20 -11 -22
-13 -4 -27 24 -18 38 9 15 29 4 29 -16z m-55 -48 c0 -19 -21 -37 -42 -37 -25
0 -23 16 4 34 27 19 38 20 38 3z" />
    <path
      d="M1212 1437 c-7 -16 -12 -32 -12 -35 0 -4 -19 -39 -43 -77 -47 -76
-61 -105 -49 -105 11 0 89 119 107 164 9 21 14 48 12 60 -3 19 -4 19 -15 -7z" />
    <path
      d="M905 1320 c-3 -5 -2 -10 4 -10 5 0 13 5 16 10 3 6 2 10 -4 10 -5 0
-13 -4 -16 -10z" />
    <path
      d="M1065 1160 c-3 -5 -1 -10 4 -10 6 0 11 5 11 10 0 6 -2 10 -4 10 -3 0
-8 -4 -11 -10z" />
    <path
      d="M1545 1300 c3 -5 11 -10 16 -10 6 0 7 5 4 10 -3 6 -11 10 -16 10 -6
0 -7 -4 -4 -10z" />
    <path d="M370 2174 c0 -25 136 -154 163 -154 6 0 -24 36 -68 80 -73 73 -95 90
-95 74z" />
    <path d="M420 2175 c0 -14 21 -45 30 -45 18 0 10 29 -10 40 -11 6 -20 8 -20 5z" />
    <path
      d="M2609 2113 c-68 -65 -71 -67 -123 -68 -33 0 -63 -7 -80 -18 -24 -16
-26 -23 -20 -50 10 -49 13 -50 50 -17 20 17 40 28 45 24 18 -11 183 127 209
175 21 40 -11 22 -81 -46z" />
    <path
      d="M170 2091 c0 -13 111 -118 164 -156 45 -32 145 -80 151 -73 2 2 -37
28 -87 58 -55 33 -113 80 -149 118 -54 58 -79 74 -79 53z" />
    <path d="M630 2031 c0 -11 29 -35 35 -29 10 9 -7 38 -21 38 -8 0 -14 -4 -14
-9z" />
    <path
      d="M575 1974 c53 -46 168 -118 225 -141 61 -25 80 -28 80 -13 0 6 -6 10
-13 10 -20 0 -162 77 -236 127 -69 47 -104 58 -56 17z" />
    <path
      d="M2335 1910 c-3 -5 3 -10 14 -10 12 0 21 5 21 10 0 6 -6 10 -14 10 -8
0 -18 -4 -21 -10z" />
    <path d="M536 1831 c5 -5 20 -12 34 -15 24 -7 24 -6 6 8 -21 17 -57 23 -40 7z" />
    <path
      d="M996 1801 c-4 -5 -2 -12 3 -15 5 -4 12 -2 15 3 4 5 2 12 -3 15 -5 4
-12 2 -15 -3z" />
    <path
      d="M1080 1790 c0 -5 5 -10 10 -10 6 0 10 5 10 10 0 6 -4 10 -10 10 -5 0
-10 -4 -10 -10z" />
  </g>
</svg>